# xmcd
#
# Track frame offsets:
#	182
#	13150
#	31282
#	40290
#	57100
#	72327
#	85725
#	101987
#	119852
#	135772
#
# Disc length: 1997 seconds
# Revision: 5
# Processed by: cddbd v1.5.2PL0 Copyright (c) Steve Scherf et al.
# Submitted via: dBpowerAMP V12.0
#
DISCID=8707cb0a
DTITLE=Little Texas - First Time For Everything
DYEAR=1992
DGENRE=Country
TTITLE0=Some Guys Have All The Love
TTITLE1=First Time For Everything
TTITLE2=Down In The Valley
TTITLE3=You And Forever And Me
TTITLE4=What Were You Thinkin'
TTITLE5=Dance
TTITLE6=Better Way
TTITLE7=I'd Rather Miss You
TTITLE8=Just One More Night
TTITLE9=Cry On
EXTD=
EXTT0=
EXTT1=
EXTT2=
EXTT3=
EXTT4=
EXTT5=
EXTT6=
EXTT7=
EXTT8=
EXTT9=
PLAYORDER=
